<svg xmlns="http://www.w3.org/2000/svg" viewBox="0 0 640 640" role="img" aria-labelledby="title desc">
  <title id="title">Queen's Banquet Events logo</title>
  <desc id="desc">Circular black and gold Queen's Banquet Events emblem with crown and script-style lettering.</desc>
  <defs>
    <linearGradient id="gold" x1="120" y1="80" x2="520" y2="560" gradientUnits="userSpaceOnUse">
      <stop offset="0" stop-color="#ffe7a5" />
      <stop offset="0.36" stop-color="#d9a642" />
      <stop offset="0.68" stop-color="#fff0ad" />
      <stop offset="1" stop-color="#b97816" />
    </linearGradient>
    <radialGradient id="glow" cx="50%" cy="38%" r="58%">
      <stop offset="0" stop-color="#4c3211" stop-opacity="0.5" />
      <stop offset="1" stop-color="#050403" stop-opacity="0" />
    </radialGradient>
    <filter id="softShadow" x="-20%" y="-20%" width="140%" height="140%">
      <feDropShadow dx="0" dy="6" stdDeviation="8" flood-color="#000000" flood-opacity="0.45" />
    </filter>
  </defs>

  <circle cx="320" cy="320" r="306" fill="#050403" />
  <circle cx="320" cy="320" r="288" fill="none" stroke="url(#gold)" stroke-width="20" />
  <circle cx="320" cy="320" r="260" fill="url(#glow)" stroke="#17110a" stroke-width="2" />

  <g filter="url(#softShadow)">
    <path
      d="M244 221h152l18 58H226l18-58Z"
      fill="none"
      stroke="url(#gold)"
      stroke-width="9"
      stroke-linejoin="round"
    />
    <path
      d="M232 216c-22-38-2-69 30-48 22 14 29 44 27 81m119-33c22-38 2-69-30-48-22 14-29 44-27 81M279 216l41-64 41 64M320 150v-42m-20 20h40"
      fill="none"
      stroke="url(#gold)"
      stroke-width="9"
      stroke-linecap="round"
      stroke-linejoin="round"
    />
    <circle cx="320" cy="184" r="13" fill="url(#gold)" />
    <circle cx="262" cy="180" r="10" fill="url(#gold)" />
    <circle cx="378" cy="180" r="10" fill="url(#gold)" />
    <path d="M238 281h164" stroke="url(#gold)" stroke-width="12" stroke-linecap="round" />
    <path d="M258 302h124" stroke="url(#gold)" stroke-width="5" stroke-linecap="round" />
  </g>

  <text
    x="320"
    y="354"
    text-anchor="middle"
    fill="url(#gold)"
    font-family="Georgia, 'Times New Roman', serif"
    font-size="36"
    font-weight="700"
    letter-spacing="8"
  >
    QUEEN&apos;S
  </text>

  <text
    x="320"
    y="437"
    text-anchor="middle"
    fill="url(#gold)"
    font-family="'Brush Script MT', 'Segoe Script', cursive"
    font-size="96"
    font-weight="400"
  >
    Banquet
  </text>

  <path d="M146 448h120M374 448h120" stroke="url(#gold)" stroke-width="5" stroke-linecap="round" />

  <text
    x="320"
    y="523"
    text-anchor="middle"
    fill="url(#gold)"
    font-family="Georgia, 'Times New Roman', serif"
    font-size="34"
    letter-spacing="23"
  >
    EVENTS
  </text>
</svg>
